<svg width="30" height="30" viewBox="0 0 30 30" fill="none" xmlns="http://www.w3.org/2000/svg">
<path d="M23.125 25H6.875L3.125 28.75V7.5C3.125 5.4375 4.8125 3.75 6.875 3.75H23.125C25.1875 3.75 26.875 5.4375 26.875 7.5V21.25C26.875 23.3125 25.1875 25 23.125 25Z" fill="white"/>
<path d="M13.75 12.5H16.25V19.375H13.75V12.5Z" fill="black"/>
<path d="M15 10.625C15.6904 10.625 16.25 10.0654 16.25 9.375C16.25 8.68464 15.6904 8.125 15 8.125C14.3096 8.125 13.75 8.68464 13.75 9.375C13.75 10.0654 14.3096 10.625 15 10.625Z" fill="black"/>
</svg>
