<svg width="25" height="25" viewBox="0 0 25 25" fill="none" xmlns="http://www.w3.org/2000/svg">
<path d="M19.2708 20.8333H5.72913L2.60413 23.9583V6.25C2.60413 4.53125 4.01038 3.125 5.72913 3.125H19.2708C20.9895 3.125 22.3958 4.53125 22.3958 6.25V17.7083C22.3958 19.4271 20.9895 20.8333 19.2708 20.8333Z" fill="black"/>
<path d="M11.4584 10.4167H13.5417V16.1459H11.4584V10.4167Z" fill="#EFEFEF"/>
<path d="M12.5 8.85418C13.0753 8.85418 13.5417 8.38781 13.5417 7.81251C13.5417 7.23721 13.0753 6.77084 12.5 6.77084C11.9247 6.77084 11.4584 7.23721 11.4584 7.81251C11.4584 8.38781 11.9247 8.85418 12.5 8.85418Z" fill="#EFEFEF"/>
</svg>
