<svg width="27" height="25" viewBox="0 0 27 25" fill="none" xmlns="http://www.w3.org/2000/svg">
<path d="M21.8074 18.6981H19.6778V9.60875L13.2889 13.5042L6.90001 9.60875V18.6981H4.77038V6.23271H6.04815L13.2889 10.6475L20.5296 6.23271H21.8074M21.8074 4.15515H4.77038C3.58843 4.15515 2.64075 5.07967 2.64075 6.23271V18.6981C2.64075 19.2491 2.86512 19.7775 3.2645 20.1671C3.66388 20.5568 4.20556 20.7757 4.77038 20.7757H21.8074C22.3722 20.7757 22.9139 20.5568 23.3133 20.1671C23.7127 19.7775 23.937 19.2491 23.937 18.6981V6.23271C23.937 5.68171 23.7127 5.15327 23.3133 4.76366C22.9139 4.37404 22.3722 4.15515 21.8074 4.15515Z" fill="black"/>
</svg>
