<svg width="26" height="19" viewBox="0 0 26 19" fill="none" xmlns="http://www.w3.org/2000/svg">
<path fill-rule="evenodd" clip-rule="evenodd" d="M12.7778 0C5.71806 0 0 4.25414 0 9.50645C0 13.7131 3.65764 17.2661 8.73681 18.5257C9.3757 18.6089 9.61528 18.3237 9.61528 18.0741C9.61528 17.8484 9.59931 17.0997 9.59931 16.3036C6.38889 16.7432 5.55833 15.7213 5.30278 15.1866C5.15903 14.9132 4.53611 14.0696 3.99306 13.8438C3.54583 13.6655 2.90694 13.2259 3.97708 13.214C4.98333 13.2021 5.70208 13.9032 5.94167 14.1884C7.09167 15.6262 8.92847 15.2222 9.6632 14.9727C9.775 14.3547 10.1104 13.9388 10.4778 13.7012C7.63472 13.4635 4.66389 12.6436 4.66389 9.00736C4.66389 7.97354 5.15903 7.11796 5.97361 6.45251C5.84583 6.21484 5.39861 5.24043 6.10139 3.9333C6.10139 3.9333 7.17153 3.68375 9.61528 4.90771C10.6375 4.69381 11.7236 4.58686 12.8097 4.58686C13.8958 4.58686 14.9819 4.69381 16.0042 4.90771C18.4479 3.67187 19.5181 3.9333 19.5181 3.9333C20.2208 5.24043 19.7736 6.21484 19.6458 6.45251C20.4604 7.11796 20.9556 7.96165 20.9556 9.00736C20.9556 12.6555 17.9688 13.4635 15.1257 13.7012C15.5889 13.9983 15.9882 14.5686 15.9882 15.4599C15.9882 16.7314 15.9722 17.7533 15.9722 18.0741C15.9722 18.3237 16.2118 18.6208 16.8507 18.5257C19.3873 17.8885 21.5914 16.6757 23.153 15.0577C24.7145 13.4398 25.5548 11.4983 25.5556 9.50645C25.5556 4.25414 19.8375 0 12.7778 0Z" fill="black"/>
</svg>
