<svg width="27" height="25" viewBox="0 0 27 25" fill="none" xmlns="http://www.w3.org/2000/svg">
<path d="M18.613 13.6392V17.4796H16.3311V13.8958C16.3311 12.9962 16.001 12.3823 15.1747 12.3823C14.5443 12.3823 14.1685 12.7957 14.0034 13.1967C13.9438 13.34 13.9278 13.5395 13.9278 13.7389V17.4796H11.6448C11.6448 17.4796 11.6757 11.411 11.6448 10.7825H13.9278V11.731L13.9129 11.7528H13.9278V11.732C14.2313 11.2749 14.7722 10.6247 15.985 10.6247C17.4864 10.6247 18.613 11.5824 18.613 13.6392ZM9.25646 7.55298C8.47595 7.55298 7.96484 8.05367 7.96484 8.71018C7.96484 9.35423 8.46105 9.86842 9.22665 9.86842H9.24156C10.038 9.86842 10.5332 9.35319 10.5332 8.71018C10.5183 8.05367 10.038 7.55298 9.25646 7.55298ZM8.10008 17.4796H10.383V10.7825H8.10008V17.4796Z" fill="black"/>
<path d="M13.2889 20.7756C15.5481 20.7756 17.7149 19.9 19.3124 18.3416C20.9099 16.7831 21.8074 14.6693 21.8074 12.4653C21.8074 10.2613 20.9099 8.14757 19.3124 6.58909C17.7149 5.03062 15.5481 4.15508 13.2889 4.15508C11.0296 4.15508 8.86293 5.03062 7.26539 6.58909C5.66786 8.14757 4.77038 10.2613 4.77038 12.4653C4.77038 14.6693 5.66786 16.7831 7.26539 18.3416C8.86293 19.9 11.0296 20.7756 13.2889 20.7756ZM13.2889 22.8531C7.40792 22.8531 2.64075 18.2025 2.64075 12.4653C2.64075 6.72814 7.40792 2.07751 13.2889 2.07751C19.1699 2.07751 23.937 6.72814 23.937 12.4653C23.937 18.2025 19.1699 22.8531 13.2889 22.8531Z" fill="black"/>
</svg>
