<svg width="30" height="30" viewBox="0 0 30 30" fill="none" xmlns="http://www.w3.org/2000/svg">
<path d="M26.61 4.14001C27.8205 5.35487 28.5003 6.99999 28.5003 8.71501C28.5003 10.43 27.8205 12.0752 26.61 13.29L24.315 15.57C22.635 17.25 20.265 17.775 18.105 17.205L22.035 13.29L23.175 12.135L24.315 10.995C25.575 9.73501 25.575 7.69501 24.315 6.43501C24.0176 6.13205 23.6628 5.8914 23.2713 5.72712C22.8798 5.56284 22.4595 5.47823 22.035 5.47823C21.6104 5.47823 21.1901 5.56284 20.7987 5.72712C20.4072 5.8914 20.0524 6.13205 19.755 6.43501L18.6 7.57501L13.53 12.645C12.975 10.485 13.5 8.11501 15.18 6.43501L17.46 4.14001C18.6748 2.92945 20.32 2.24973 22.035 2.24973C23.75 2.24973 25.3951 2.92945 26.61 4.14001ZM12.885 20.145L20.895 12.135C21.525 11.505 21.525 10.485 20.895 9.85501C20.235 9.21001 19.2 9.27001 18.6 9.85501L10.605 17.865C9.97498 18.495 9.97498 19.515 10.605 20.145C11.265 20.79 12.3 20.73 12.885 20.145ZM11.745 23.58L17.955 17.355C18.525 19.515 18 21.885 16.32 23.565L14.04 25.86C12.8251 27.0706 11.18 27.7503 9.46498 27.7503C7.74995 27.7503 6.10484 27.0706 4.88998 25.86C3.67942 24.6452 2.99969 23 2.99969 21.285C2.99969 19.57 3.67942 17.9249 4.88998 16.71L7.18498 14.43C8.86498 12.75 11.235 12.225 13.395 12.78L7.18498 19.005C5.90998 20.265 5.90998 22.305 7.18498 23.58C8.44498 24.84 10.485 24.84 11.745 23.58Z" fill="white"/>
</svg>
