<svg width="30" height="30" viewBox="0 0 30 30" fill="none" xmlns="http://www.w3.org/2000/svg">
<path d="M3.75 10V23.75C3.75 26.5012 5.9925 27.5 7.5 27.5H26.25V25H7.515C6.9375 24.985 6.25 24.7575 6.25 23.75C6.25 22.7425 6.9375 22.515 7.515 22.5H26.25V5C26.25 3.62125 25.1287 2.5 23.75 2.5H7.5C5.9925 2.5 3.75 3.49875 3.75 6.25V10ZM7.5 5H23.75V20H6.25V6.25C6.25 5.2425 6.9375 5.015 7.5 5Z" fill="white"/>
<path d="M14.9962 17.5L19.1837 13.3888C19.4419 13.1405 19.6473 12.8426 19.7876 12.513C19.9279 12.1834 20.0002 11.8289 20.0002 11.4706C20.0002 11.1124 19.9279 10.7579 19.7876 10.4283C19.6473 10.0987 19.4419 9.80082 19.1837 9.55251C18.6632 9.03877 17.9613 8.75071 17.23 8.75071C16.4986 8.75071 15.7967 9.03877 15.2762 9.55251L14.9962 9.82501L14.7162 9.55126C14.1959 9.0376 13.4942 8.74957 12.7631 8.74957C12.032 8.74957 11.3303 9.0376 10.81 9.55126C10.5518 9.79957 10.3464 10.0975 10.2061 10.427C10.0658 10.7566 9.99347 11.1112 9.99347 11.4694C9.99347 11.8276 10.0658 12.1821 10.2061 12.5117C10.3464 12.8413 10.5518 13.1392 10.81 13.3875L14.9962 17.5Z" fill="white"/>
</svg>
