<svg width="28" height="27" viewBox="0 0 28 27" fill="none" xmlns="http://www.w3.org/2000/svg">
<path d="M3.38831 8.79394V20.8856C3.38831 23.305 5.4145 24.1833 6.77658 24.1833H23.718V21.9849H6.79014C6.26834 21.9717 5.64716 21.7716 5.64716 20.8856C5.64716 19.9996 6.26834 19.7996 6.79014 19.7864H23.718V4.39697C23.718 3.18451 22.7049 2.19849 21.4591 2.19849H6.77658C5.4145 2.19849 3.38831 3.07678 3.38831 5.49621V8.79394ZM6.77658 4.39697H21.4591V17.5879H5.64716V5.49621C5.64716 4.61022 6.26834 4.41016 6.77658 4.39697Z" fill="black"/>
<path d="M13.5497 15.3894L17.3333 11.774C17.5666 11.5556 17.7522 11.2937 17.879 11.0038C18.0057 10.714 18.0711 10.4022 18.0711 10.0872C18.0711 9.77219 18.0057 9.46042 17.879 9.17057C17.7522 8.88073 17.5666 8.61878 17.3333 8.40042C16.863 7.94863 16.2288 7.69531 15.568 7.69531C14.9072 7.69531 14.273 7.94863 13.8027 8.40042L13.5497 8.64005L13.2968 8.39932C12.8266 7.9476 12.1926 7.69431 11.532 7.69431C10.8714 7.69431 10.2374 7.9476 9.7673 8.39932C9.53401 8.61768 9.34842 8.87963 9.22165 9.16948C9.09488 9.45932 9.02954 9.77109 9.02954 10.0861C9.02954 10.4011 9.09488 10.7129 9.22165 11.0027C9.34842 11.2926 9.53401 11.5545 9.7673 11.7729L13.5497 15.3894Z" fill="black"/>
</svg>
