<svg width="270" height="44" viewBox="0 0 270 44" fill="none" xmlns="http://www.w3.org/2000/svg">
<path d="M7.084 32.304C6.532 32.592 5.944 32.736 5.32 32.736C4.552 32.64 3.808 32.448 3.088 32.16C2.392 31.872 1.876 31.524 1.54 31.116C1.348 29.94 1.192 28.86 1.072 27.876C0.952 26.892 0.856 25.968 0.784001 25.104C0.712 24.216 0.664 23.376 0.64 22.584C0.616 21.768 0.604 20.952 0.604 20.136C0.604 19.056 0.616 17.916 0.64 16.716C0.664 15.516 0.688 14.244 0.712 12.9C0.760001 11.532 0.796 10.08 0.82 8.544C0.844 6.984 0.856 5.292 0.856 3.468C1.168 3.468 1.636 3.564 2.26 3.756C2.884 3.924 3.496 4.128 4.096 4.368C4.72 4.608 5.272 4.86 5.752 5.124C6.232 5.364 6.496 5.568 6.544 5.736C6.304 6.408 6.088 7.284 5.896 8.364C5.728 9.444 5.584 10.644 5.464 11.964C5.368 13.284 5.296 14.676 5.248 16.14C5.2 17.604 5.176 19.056 5.176 20.496C5.176 21.576 5.188 22.548 5.212 23.412C5.236 24.252 5.26 25.02 5.284 25.716C5.332 26.388 5.392 27.024 5.464 27.624C5.536 28.2 5.62 28.776 5.716 29.352C6.388 27.312 7.12 25.272 7.912 23.232C8.728 21.192 9.556 19.236 10.396 17.364C11.26 15.468 12.112 13.704 12.952 12.072C13.792 10.44 14.584 9.024 15.328 7.824C16.096 6.6 16.78 5.64 17.38 4.944C17.98 4.224 18.472 3.84 18.856 3.792C19.12 3.84 19.396 3.948 19.684 4.116C19.996 4.26 20.284 4.44 20.548 4.656C20.812 4.872 21.052 5.112 21.268 5.376C21.484 5.64 21.652 5.904 21.772 6.168C20.884 6.48 19.924 7.212 18.892 8.364C17.884 9.516 16.864 10.908 15.832 12.54C14.8 14.148 13.792 15.912 12.808 17.832C11.848 19.728 10.972 21.588 10.18 23.412C9.412 25.236 8.752 26.94 8.2 28.524C7.648 30.108 7.276 31.368 7.084 32.304ZM28.162 15.456C28.402 15.456 28.678 15.504 28.99 15.6C29.326 15.672 29.626 15.78 29.89 15.924C30.154 16.044 30.37 16.176 30.538 16.32C30.73 16.464 30.826 16.596 30.826 16.716C30.346 17.724 29.902 18.744 29.494 19.776C29.086 20.784 28.738 21.756 28.45 22.692C28.162 23.628 27.934 24.504 27.766 25.32C27.622 26.136 27.55 26.844 27.55 27.444C27.55 28.116 27.622 28.68 27.766 29.136C27.91 29.568 28.15 29.88 28.486 30.072C28.198 30.264 27.826 30.42 27.37 30.54C26.914 30.66 26.506 30.72 26.146 30.72C24.85 30.72 24.202 29.832 24.202 28.056C24.202 26.688 24.658 24.816 25.57 22.44C25.09 23.544 24.538 24.588 23.914 25.572C23.29 26.532 22.654 27.384 22.006 28.128C21.358 28.872 20.698 29.484 20.026 29.964C19.378 30.42 18.778 30.696 18.226 30.792C17.338 30.744 16.618 30.324 16.066 29.532C15.514 28.716 15.238 27.684 15.238 26.436C15.238 25.092 15.526 23.676 16.102 22.188C16.678 20.7 17.41 19.32 18.298 18.048C19.21 16.776 20.194 15.72 21.25 14.88C22.306 14.016 23.326 13.56 24.31 13.512C24.55 13.584 24.814 13.728 25.102 13.944C25.414 14.16 25.702 14.412 25.966 14.7C26.254 14.988 26.494 15.288 26.686 15.6C26.878 15.888 26.986 16.14 27.01 16.356C26.05 16.5 25.054 16.968 24.022 17.76C23.014 18.552 22.09 19.512 21.25 20.64C20.434 21.744 19.762 22.932 19.234 24.204C18.706 25.476 18.442 26.664 18.442 27.768C18.442 28.224 18.61 28.512 18.946 28.632C19.642 28.488 20.446 27.9 21.358 26.868C22.27 25.812 23.374 24.192 24.67 22.008C24.91 21.576 25.174 21.096 25.462 20.568C25.774 20.04 26.086 19.488 26.398 18.912C26.71 18.336 27.01 17.76 27.298 17.184C27.61 16.584 27.898 16.008 28.162 15.456ZM38.4842 12.54C39.1082 12.732 39.6962 13.164 40.2482 13.836C40.8002 14.484 41.2082 15.204 41.4722 15.996C41.2082 16.644 40.8002 17.424 40.2482 18.336C39.6962 19.248 39.1442 20.184 38.5922 21.144C38.0402 22.08 37.5362 22.98 37.0802 23.844C36.6482 24.684 36.3962 25.38 36.3242 25.932C36.7082 25.524 37.1282 25.056 37.5842 24.528C38.0642 23.976 38.5202 23.436 38.9522 22.908C39.4082 22.356 39.8282 21.864 40.2122 21.432C40.5962 20.976 40.8962 20.64 41.1122 20.424C41.5682 19.944 42.1082 19.392 42.7322 18.768C43.3562 18.12 44.0042 17.52 44.6762 16.968C45.3722 16.392 46.0682 15.912 46.7642 15.528C47.4602 15.12 48.0962 14.916 48.6722 14.916C49.2962 14.916 49.8122 15.132 50.2202 15.564C50.6522 15.972 50.9882 16.404 51.2282 16.86C51.2282 16.908 51.1322 16.98 50.9402 17.076C50.7722 17.148 50.5202 17.376 50.1842 17.76C49.8482 18.192 49.4642 18.792 49.0322 19.56C48.6242 20.304 48.2162 21.12 47.8082 22.008C47.4242 22.872 47.1002 23.76 46.8362 24.672C46.5722 25.584 46.4402 26.412 46.4402 27.156C46.4402 27.756 46.5122 28.14 46.6562 28.308C46.8242 28.476 47.0522 28.56 47.3402 28.56C47.6042 28.56 47.8802 28.5 48.1682 28.38C48.4562 28.26 48.6842 28.2 48.8522 28.2C48.9482 28.248 49.0202 28.356 49.0682 28.524C49.1402 28.668 49.1762 28.8 49.1762 28.92C48.9842 29.088 48.7562 29.256 48.4922 29.424C48.2282 29.592 47.9522 29.748 47.6642 29.892C47.3762 30.036 47.0882 30.156 46.8002 30.252C46.5362 30.348 46.2962 30.396 46.0802 30.396C45.3842 30.396 44.8082 30.288 44.3522 30.072C43.9202 29.88 43.5722 29.616 43.3082 29.28C43.0682 28.944 42.9002 28.548 42.8042 28.092C42.7082 27.612 42.6602 27.108 42.6602 26.58C42.6602 26.292 42.6842 25.968 42.7322 25.608C42.7802 25.248 42.8762 24.828 43.0202 24.348C43.1642 23.844 43.3682 23.256 43.6322 22.584C43.8962 21.888 44.2322 21.06 44.6402 20.1C44.5922 20.1 44.2682 20.268 43.6682 20.604C43.0682 20.94 42.4202 21.456 41.7242 22.152C40.5962 23.232 39.5762 24.3 38.6642 25.356C37.7762 26.412 36.8642 27.588 35.9282 28.884C35.4002 29.628 34.9322 30.252 34.5242 30.756C34.1402 31.284 33.8042 31.632 33.5162 31.8C33.0122 31.512 32.6402 31.104 32.4002 30.576C32.1602 30.072 31.9802 29.544 31.8602 28.992C31.8602 28.536 31.9202 27.96 32.0402 27.264C32.1842 26.568 32.3642 25.8 32.5802 24.96C32.8202 24.096 33.1082 23.196 33.4442 22.26C33.7802 21.324 34.1522 20.388 34.5602 19.452C35.4722 17.34 36.3002 15.684 37.0442 14.484C37.8122 13.284 38.2922 12.636 38.4842 12.54ZM64.9816 15.096C64.8856 16.584 64.6216 17.868 64.1896 18.948C63.7576 20.004 63.1336 20.94 62.3176 21.756C61.5256 22.548 60.5536 23.268 59.4016 23.916C58.2496 24.564 56.9056 25.188 55.3696 25.788C55.3696 25.932 55.3576 26.088 55.3336 26.256C55.3336 26.4 55.3336 26.556 55.3336 26.724C55.3336 27.036 55.3576 27.36 55.4056 27.696C55.4536 28.032 55.5376 28.344 55.6576 28.632C55.7776 28.92 55.9456 29.16 56.1616 29.352C56.3776 29.52 56.6536 29.604 56.9896 29.604C57.6376 29.604 58.2736 29.46 58.8976 29.172C59.5216 28.884 60.1096 28.536 60.6616 28.128C61.2376 27.696 61.7656 27.24 62.2456 26.76C62.7496 26.256 63.1936 25.8 63.5776 25.392C63.8176 25.608 64.0216 25.812 64.1896 26.004C63.1096 27.444 61.9216 28.644 60.6256 29.604C59.3536 30.54 58.1416 31.14 56.9896 31.404C55.3336 31.212 54.0376 30.612 53.1016 29.604C52.1896 28.572 51.7336 27.336 51.7336 25.896C51.7336 24.912 51.8656 23.916 52.1296 22.908C52.4176 21.876 52.8016 20.892 53.2816 19.956C53.7856 18.996 54.3616 18.096 55.0096 17.256C55.6816 16.416 56.3896 15.684 57.1336 15.06C57.9016 14.436 58.6816 13.944 59.4736 13.584C60.2896 13.224 61.0936 13.044 61.8856 13.044C62.9896 13.188 64.0216 13.872 64.9816 15.096ZM62.4976 16.284C61.8496 16.38 61.1776 16.644 60.4816 17.076C59.7856 17.508 59.1256 18.084 58.5016 18.804C57.9016 19.524 57.3496 20.364 56.8456 21.324C56.3416 22.284 55.9456 23.316 55.6576 24.42C57.5776 23.46 59.1736 22.284 60.4456 20.892C61.7176 19.476 62.4016 17.94 62.4976 16.284ZM79.0683 15.672C79.0443 16.128 78.9603 16.608 78.8163 17.112C78.6963 17.592 78.5403 18.036 78.3483 18.444C78.1563 18.828 77.9523 19.152 77.7363 19.416C77.5203 19.68 77.3163 19.812 77.1243 19.812C76.8603 19.788 76.7043 19.608 76.6563 19.272C76.6563 19.2 76.6803 19.092 76.7283 18.948C76.8003 18.78 76.8723 18.6 76.9443 18.408C77.0163 18.216 77.0763 18.024 77.1243 17.832C77.1963 17.64 77.2323 17.472 77.2323 17.328C77.2323 16.992 77.1483 16.716 76.9803 16.5C76.8363 16.26 76.6323 16.14 76.3683 16.14C75.4083 16.14 74.6763 16.74 74.1723 17.94C73.6683 19.14 73.4163 20.904 73.4163 23.232C73.4163 23.472 73.4283 23.616 73.4523 23.664C73.9563 23.64 74.4003 23.628 74.7843 23.628C75.1923 23.604 75.5883 23.592 75.9723 23.592C75.9963 23.64 76.0083 23.736 76.0083 23.88C76.0083 24.096 75.9603 24.252 75.8643 24.348C75.3123 24.468 74.8683 24.576 74.5323 24.672C74.2203 24.744 73.9803 24.816 73.8123 24.888C73.6443 24.96 73.5363 25.044 73.4883 25.14C73.4643 25.212 73.4523 25.32 73.4523 25.464C73.4523 25.656 73.4523 25.848 73.4523 26.04C73.4763 26.232 73.4883 26.472 73.4883 26.76C73.4883 28.776 72.9363 30.396 71.8323 31.62C70.7523 32.844 69.2403 33.552 67.2963 33.744C66.9603 33.72 66.6123 33.624 66.2523 33.456C65.8923 33.288 65.5443 33.072 65.2083 32.808C64.8963 32.544 64.6203 32.244 64.3803 31.908C64.1403 31.596 63.9723 31.272 63.8763 30.936C63.8763 30.024 64.0683 29.16 64.4523 28.344C64.8363 27.504 65.3523 26.772 66.0003 26.148C66.6723 25.5 67.4523 24.984 68.3403 24.6C69.2523 24.192 70.2363 23.952 71.2923 23.88C71.2923 23.28 71.2323 22.692 71.1123 22.116C70.9923 21.54 70.8603 20.988 70.7163 20.46C70.5963 19.908 70.4763 19.38 70.3563 18.876C70.2363 18.348 70.1763 17.832 70.1763 17.328C70.1763 16.68 70.3083 16.044 70.5723 15.42C70.8363 14.772 71.1843 14.184 71.6163 13.656C72.0483 13.104 72.5523 12.636 73.1283 12.252C73.7043 11.868 74.3043 11.604 74.9283 11.46C75.1923 11.532 75.5403 11.748 75.9723 12.108C76.4283 12.444 76.8723 12.828 77.3043 13.26C77.7363 13.692 78.1203 14.136 78.4563 14.592C78.7923 15.024 78.9963 15.384 79.0683 15.672ZM67.1883 32.088C67.7643 31.848 68.3043 31.5 68.8083 31.044C69.3363 30.588 69.7923 30.072 70.1763 29.496C70.5603 28.92 70.8603 28.308 71.0763 27.66C71.3163 27.012 71.4363 26.376 71.4363 25.752C70.9563 25.824 70.4283 26.052 69.8523 26.436C69.2763 26.796 68.7363 27.24 68.2323 27.768C67.7283 28.272 67.3083 28.8 66.9723 29.352C66.6363 29.904 66.4683 30.384 66.4683 30.792C66.4683 31.32 66.7083 31.752 67.1883 32.088ZM91.5136 15.672C91.4896 16.128 91.4056 16.608 91.2616 17.112C91.1416 17.592 90.9856 18.036 90.7936 18.444C90.6016 18.828 90.3976 19.152 90.1816 19.416C89.9656 19.68 89.7616 19.812 89.5696 19.812C89.3056 19.788 89.1496 19.608 89.1016 19.272C89.1016 19.2 89.1256 19.092 89.1736 18.948C89.2456 18.78 89.3176 18.6 89.3896 18.408C89.4616 18.216 89.5216 18.024 89.5696 17.832C89.6416 17.64 89.6776 17.472 89.6776 17.328C89.6776 16.992 89.5936 16.716 89.4256 16.5C89.2816 16.26 89.0776 16.14 88.8136 16.14C87.8536 16.14 87.1216 16.74 86.6176 17.94C86.1136 19.14 85.8616 20.904 85.8616 23.232C85.8616 23.472 85.8736 23.616 85.8976 23.664C86.4016 23.64 86.8456 23.628 87.2296 23.628C87.6376 23.604 88.0336 23.592 88.4176 23.592C88.4416 23.64 88.4536 23.736 88.4536 23.88C88.4536 24.096 88.4056 24.252 88.3096 24.348C87.7576 24.468 87.3136 24.576 86.9776 24.672C86.6656 24.744 86.4256 24.816 86.2576 24.888C86.0896 24.96 85.9816 25.044 85.9336 25.14C85.9096 25.212 85.8976 25.32 85.8976 25.464C85.8976 25.656 85.8976 25.848 85.8976 26.04C85.9216 26.232 85.9336 26.472 85.9336 26.76C85.9336 28.776 85.3816 30.396 84.2776 31.62C83.1976 32.844 81.6856 33.552 79.7416 33.744C79.4056 33.72 79.0576 33.624 78.6976 33.456C78.3376 33.288 77.9896 33.072 77.6536 32.808C77.3416 32.544 77.0656 32.244 76.8256 31.908C76.5856 31.596 76.4176 31.272 76.3216 30.936C76.3216 30.024 76.5136 29.16 76.8976 28.344C77.2816 27.504 77.7976 26.772 78.4456 26.148C79.1176 25.5 79.8976 24.984 80.7856 24.6C81.6976 24.192 82.6816 23.952 83.7376 23.88C83.7376 23.28 83.6776 22.692 83.5576 22.116C83.4376 21.54 83.3056 20.988 83.1616 20.46C83.0416 19.908 82.9216 19.38 82.8016 18.876C82.6816 18.348 82.6216 17.832 82.6216 17.328C82.6216 16.68 82.7536 16.044 83.0176 15.42C83.2816 14.772 83.6296 14.184 84.0616 13.656C84.4936 13.104 84.9976 12.636 85.5736 12.252C86.1496 11.868 86.7496 11.604 87.3736 11.46C87.6376 11.532 87.9856 11.748 88.4176 12.108C88.8736 12.444 89.3176 12.828 89.7496 13.26C90.1816 13.692 90.5656 14.136 90.9016 14.592C91.2376 15.024 91.4416 15.384 91.5136 15.672ZM79.6336 32.088C80.2096 31.848 80.7496 31.5 81.2536 31.044C81.7816 30.588 82.2376 30.072 82.6216 29.496C83.0056 28.92 83.3056 28.308 83.5216 27.66C83.7616 27.012 83.8816 26.376 83.8816 25.752C83.4016 25.824 82.8736 26.052 82.2976 26.436C81.7216 26.796 81.1816 27.24 80.6776 27.768C80.1736 28.272 79.7536 28.8 79.4176 29.352C79.0816 29.904 78.9136 30.384 78.9136 30.792C78.9136 31.32 79.1536 31.752 79.6336 32.088ZM103.959 15.456C104.199 15.456 104.475 15.504 104.787 15.6C105.123 15.672 105.423 15.78 105.687 15.924C105.951 16.044 106.167 16.176 106.335 16.32C106.527 16.464 106.623 16.596 106.623 16.716C106.143 17.724 105.699 18.744 105.291 19.776C104.883 20.784 104.535 21.756 104.247 22.692C103.959 23.628 103.731 24.504 103.563 25.32C103.419 26.136 103.347 26.844 103.347 27.444C103.347 28.116 103.419 28.68 103.563 29.136C103.707 29.568 103.947 29.88 104.283 30.072C103.995 30.264 103.623 30.42 103.167 30.54C102.711 30.66 102.303 30.72 101.943 30.72C100.647 30.72 99.9989 29.832 99.9989 28.056C99.9989 26.688 100.455 24.816 101.367 22.44C100.887 23.544 100.335 24.588 99.7109 25.572C99.0869 26.532 98.4509 27.384 97.8029 28.128C97.1549 28.872 96.4949 29.484 95.8229 29.964C95.1749 30.42 94.5749 30.696 94.0229 30.792C93.1349 30.744 92.4149 30.324 91.8629 29.532C91.3109 28.716 91.0349 27.684 91.0349 26.436C91.0349 25.092 91.3229 23.676 91.8989 22.188C92.4749 20.7 93.2069 19.32 94.0949 18.048C95.0069 16.776 95.9909 15.72 97.0469 14.88C98.1029 14.016 99.1229 13.56 100.107 13.512C100.347 13.584 100.611 13.728 100.899 13.944C101.211 14.16 101.499 14.412 101.763 14.7C102.051 14.988 102.291 15.288 102.483 15.6C102.675 15.888 102.783 16.14 102.807 16.356C101.847 16.5 100.851 16.968 99.8189 17.76C98.8109 18.552 97.8869 19.512 97.0469 20.64C96.2309 21.744 95.5589 22.932 95.0309 24.204C94.5029 25.476 94.2389 26.664 94.2389 27.768C94.2389 28.224 94.4069 28.512 94.7429 28.632C95.4389 28.488 96.2429 27.9 97.1549 26.868C98.0669 25.812 99.1709 24.192 100.467 22.008C100.707 21.576 100.971 21.096 101.259 20.568C101.571 20.04 101.883 19.488 102.195 18.912C102.507 18.336 102.807 17.76 103.095 17.184C103.407 16.584 103.695 16.008 103.959 15.456ZM137.835 18.948C137.451 18.972 136.983 19.224 136.431 19.704C135.879 20.16 135.279 20.76 134.631 21.504C134.007 22.224 133.347 23.028 132.651 23.916C131.979 24.804 131.319 25.692 130.671 26.58C130.047 27.444 129.459 28.26 128.907 29.028C128.355 29.796 127.887 30.408 127.503 30.864C126.975 30.648 126.519 30.336 126.135 29.928C125.751 29.496 125.475 28.968 125.307 28.344C125.427 27.6 125.595 26.832 125.811 26.04C126.027 25.224 126.303 24.384 126.639 23.52C126.999 22.656 127.431 21.756 127.935 20.82C128.463 19.86 129.099 18.852 129.843 17.796C129.483 17.82 128.991 18.084 128.367 18.588C127.743 19.068 127.071 19.704 126.351 20.496C125.631 21.264 124.887 22.14 124.119 23.124C123.351 24.084 122.631 25.032 121.959 25.968C121.071 27.216 120.327 28.308 119.727 29.244C119.151 30.18 118.731 30.732 118.467 30.9C117.843 30.444 117.411 29.952 117.171 29.424C116.931 28.896 116.751 28.308 116.631 27.66C116.655 27.084 116.739 26.364 116.883 25.5C117.051 24.636 117.279 23.748 117.567 22.836C118.119 21.084 118.827 19.344 119.691 17.616C120.579 15.888 121.431 14.304 122.247 12.864C122.919 13.008 123.519 13.236 124.047 13.548C124.599 13.86 125.175 14.316 125.775 14.916C125.535 15.66 125.163 16.452 124.659 17.292C124.155 18.108 123.627 18.972 123.075 19.884C122.523 20.796 122.019 21.732 121.563 22.692C121.107 23.652 120.807 24.624 120.663 25.608C121.335 24.648 122.127 23.544 123.039 22.296C123.975 21.048 124.923 19.872 125.883 18.768C126.867 17.664 127.839 16.728 128.799 15.96C129.759 15.192 130.623 14.808 131.391 14.808C131.679 14.808 131.991 14.856 132.327 14.952C132.663 15.048 132.975 15.168 133.263 15.312C133.551 15.456 133.791 15.6 133.983 15.744C134.175 15.864 134.283 15.96 134.307 16.032C134.187 16.512 133.899 17.172 133.443 18.012C133.011 18.828 132.543 19.692 132.039 20.604C131.535 21.516 131.067 22.404 130.635 23.268C130.203 24.108 129.951 24.78 129.879 25.284C131.055 23.676 132.159 22.224 133.191 20.928C134.223 19.608 135.195 18.48 136.107 17.544C137.019 16.608 137.859 15.888 138.627 15.384C139.419 14.88 140.163 14.628 140.859 14.628C141.339 14.628 141.783 14.76 142.191 15.024C142.623 15.264 142.923 15.624 143.091 16.104C142.875 16.824 142.515 17.688 142.011 18.696C141.531 19.704 141.039 20.772 140.535 21.9C140.031 23.004 139.575 24.096 139.167 25.176C138.783 26.256 138.591 27.228 138.591 28.092C138.591 28.596 138.663 28.932 138.807 29.1C138.951 29.244 139.155 29.316 139.419 29.316C139.707 29.316 139.971 29.268 140.211 29.172C140.475 29.052 140.667 28.992 140.787 28.992C140.931 29.088 141.015 29.208 141.039 29.352C141.063 29.496 141.075 29.628 141.075 29.748C140.595 30.132 140.103 30.444 139.599 30.684C139.095 30.948 138.531 31.08 137.907 31.08C137.331 31.08 136.851 30.984 136.467 30.792C136.107 30.6 135.807 30.336 135.567 30C135.327 29.664 135.159 29.28 135.063 28.848C134.967 28.416 134.919 27.948 134.919 27.444C134.919 26.628 135.027 25.824 135.243 25.032C135.459 24.216 135.711 23.448 135.999 22.728C136.311 21.984 136.635 21.3 136.971 20.676C137.307 20.028 137.595 19.452 137.835 18.948ZM156.975 15.456C157.215 15.456 157.491 15.504 157.803 15.6C158.139 15.672 158.439 15.78 158.703 15.924C158.967 16.044 159.183 16.176 159.351 16.32C159.543 16.464 159.639 16.596 159.639 16.716C159.159 17.724 158.715 18.744 158.307 19.776C157.899 20.784 157.551 21.756 157.263 22.692C156.975 23.628 156.747 24.504 156.579 25.32C156.435 26.136 156.363 26.844 156.363 27.444C156.363 28.116 156.435 28.68 156.579 29.136C156.723 29.568 156.963 29.88 157.299 30.072C157.011 30.264 156.639 30.42 156.183 30.54C155.727 30.66 155.319 30.72 154.959 30.72C153.663 30.72 153.015 29.832 153.015 28.056C153.015 26.688 153.471 24.816 154.383 22.44C153.903 23.544 153.351 24.588 152.727 25.572C152.103 26.532 151.467 27.384 150.819 28.128C150.171 28.872 149.511 29.484 148.839 29.964C148.191 30.42 147.591 30.696 147.039 30.792C146.151 30.744 145.431 30.324 144.879 29.532C144.327 28.716 144.051 27.684 144.051 26.436C144.051 25.092 144.339 23.676 144.915 22.188C145.491 20.7 146.223 19.32 147.111 18.048C148.023 16.776 149.007 15.72 150.062 14.88C151.118 14.016 152.139 13.56 153.123 13.512C153.363 13.584 153.627 13.728 153.915 13.944C154.227 14.16 154.515 14.412 154.779 14.7C155.067 14.988 155.307 15.288 155.499 15.6C155.691 15.888 155.799 16.14 155.823 16.356C154.863 16.5 153.867 16.968 152.835 17.76C151.827 18.552 150.903 19.512 150.062 20.64C149.247 21.744 148.575 22.932 148.047 24.204C147.519 25.476 147.255 26.664 147.255 27.768C147.255 28.224 147.423 28.512 147.759 28.632C148.455 28.488 149.259 27.9 150.171 26.868C151.083 25.812 152.187 24.192 153.483 22.008C153.723 21.576 153.987 21.096 154.275 20.568C154.587 20.04 154.899 19.488 155.211 18.912C155.523 18.336 155.823 17.76 156.111 17.184C156.423 16.584 156.711 16.008 156.975 15.456ZM160.601 29.28C160.721 28.584 160.925 27.672 161.213 26.544C161.525 25.392 161.885 24.18 162.293 22.908C162.701 21.612 163.133 20.316 163.589 19.02C164.045 17.724 164.489 16.56 164.921 15.528C165.233 14.784 165.509 14.208 165.749 13.8C165.989 13.368 166.253 13.008 166.541 12.72C166.877 12.768 167.225 12.852 167.585 12.972C167.945 13.092 168.293 13.236 168.629 13.404C168.965 13.572 169.265 13.752 169.529 13.944C169.793 14.112 169.997 14.28 170.141 14.448C169.493 15.216 168.917 16.092 168.413 17.076C167.933 18.06 167.441 19.32 166.937 20.856C168.233 19.704 169.373 18.6 170.357 17.544C171.365 16.488 172.301 15.312 173.165 14.016C173.309 13.896 173.561 13.836 173.921 13.836C174.257 13.836 174.581 13.896 174.893 14.016C175.205 14.112 175.421 14.256 175.541 14.448C175.109 15.6 174.893 16.74 174.893 17.868C174.893 18.924 175.049 19.716 175.361 20.244C175.337 20.388 175.169 20.664 174.857 21.072C174.569 21.48 174.245 21.864 173.885 22.224C173.237 21.888 172.661 21.432 172.157 20.856C171.653 20.256 171.281 19.608 171.041 18.912C169.913 19.704 168.953 20.484 168.161 21.252C167.369 21.996 166.685 22.836 166.109 23.772C165.557 24.684 165.077 25.74 164.669 26.94C164.285 28.14 163.913 29.568 163.553 31.224C163.337 31.2 163.073 31.116 162.761 30.972C162.473 30.852 162.173 30.696 161.861 30.504C161.573 30.312 161.309 30.108 161.069 29.892C160.829 29.676 160.673 29.472 160.601 29.28ZM168.712 40.728C168.712 40.584 168.76 40.452 168.856 40.332C168.952 40.212 169.06 40.092 169.18 39.972C169.468 40.236 169.72 40.44 169.936 40.584C170.128 40.728 170.32 40.848 170.512 40.944C170.68 41.04 170.86 41.1 171.052 41.124C171.244 41.148 171.472 41.16 171.736 41.16C172.984 41.16 174.172 40.824 175.3 40.152C176.428 39.504 177.484 38.556 178.468 37.308C179.476 36.06 180.388 34.536 181.204 32.736C182.02 30.936 182.74 28.896 183.364 26.616C183.076 26.904 182.716 27.228 182.284 27.588C181.876 27.924 181.444 28.248 180.988 28.56C180.532 28.872 180.076 29.16 179.62 29.424C179.188 29.688 178.816 29.88 178.504 30C178.096 29.928 177.712 29.76 177.352 29.496C177.016 29.208 176.716 28.86 176.452 28.452C176.188 28.044 175.984 27.588 175.84 27.084C175.696 26.556 175.624 26.004 175.624 25.428C175.624 24.492 175.792 23.532 176.128 22.548C176.488 21.564 176.956 20.604 177.532 19.668C178.108 18.708 178.78 17.808 179.548 16.968C180.34 16.128 181.168 15.396 182.032 14.772C182.92 14.148 183.808 13.656 184.696 13.296C185.608 12.912 186.496 12.72 187.36 12.72C188.2 12.72 188.824 12.9 189.232 13.26C189.664 13.596 189.976 14.184 190.168 15.024C189.904 14.88 189.568 14.808 189.16 14.808C188.584 14.808 187.912 15.036 187.144 15.492C186.4 15.948 185.632 16.548 184.84 17.292C184.072 18.012 183.304 18.852 182.536 19.812C181.768 20.748 181.084 21.708 180.484 22.692C179.908 23.676 179.428 24.636 179.044 25.572C178.684 26.508 178.504 27.348 178.504 28.092C178.504 28.26 178.516 28.368 178.54 28.416C178.564 28.44 178.6 28.452 178.648 28.452C178.864 28.452 179.152 28.332 179.512 28.092C179.896 27.852 180.316 27.552 180.772 27.192C181.252 26.808 181.744 26.376 182.248 25.896C182.752 25.392 183.232 24.888 183.688 24.384C184.72 23.232 185.656 21.948 186.496 20.532C187.36 19.092 188.044 17.7 188.548 16.356C189.196 16.404 189.772 16.512 190.276 16.68C190.78 16.848 191.128 17.028 191.32 17.22C190.504 19.092 189.844 20.664 189.34 21.936C188.86 23.208 188.44 24.336 188.08 25.32C187.432 27.048 186.82 28.62 186.244 30.036C185.692 31.476 185.116 32.796 184.516 33.996C183.94 35.22 183.304 36.348 182.608 37.38C181.936 38.436 181.168 39.444 180.304 40.404C179.896 40.86 179.428 41.256 178.9 41.592C178.396 41.952 177.868 42.252 177.316 42.492C176.788 42.732 176.26 42.912 175.732 43.032C175.228 43.152 174.76 43.212 174.328 43.212C173.752 43.212 173.164 43.14 172.564 42.996C171.964 42.876 171.412 42.696 170.908 42.456C170.38 42.24 169.924 41.976 169.54 41.664C169.156 41.376 168.88 41.064 168.712 40.728ZM204.611 15.456C204.851 15.456 205.127 15.504 205.439 15.6C205.775 15.672 206.075 15.78 206.339 15.924C206.603 16.044 206.819 16.176 206.987 16.32C207.179 16.464 207.275 16.596 207.275 16.716C206.795 17.724 206.351 18.744 205.943 19.776C205.535 20.784 205.187 21.756 204.899 22.692C204.611 23.628 204.383 24.504 204.215 25.32C204.071 26.136 203.999 26.844 203.999 27.444C203.999 28.116 204.071 28.68 204.215 29.136C204.359 29.568 204.599 29.88 204.935 30.072C204.647 30.264 204.275 30.42 203.819 30.54C203.363 30.66 202.955 30.72 202.595 30.72C201.299 30.72 200.651 29.832 200.651 28.056C200.651 26.688 201.107 24.816 202.019 22.44C201.539 23.544 200.987 24.588 200.363 25.572C199.739 26.532 199.103 27.384 198.455 28.128C197.807 28.872 197.147 29.484 196.475 29.964C195.827 30.42 195.227 30.696 194.675 30.792C193.787 30.744 193.067 30.324 192.515 29.532C191.963 28.716 191.687 27.684 191.687 26.436C191.687 25.092 191.975 23.676 192.551 22.188C193.127 20.7 193.859 19.32 194.747 18.048C195.659 16.776 196.643 15.72 197.699 14.88C198.755 14.016 199.775 13.56 200.759 13.512C200.999 13.584 201.263 13.728 201.551 13.944C201.863 14.16 202.151 14.412 202.415 14.7C202.703 14.988 202.943 15.288 203.135 15.6C203.327 15.888 203.435 16.14 203.459 16.356C202.499 16.5 201.503 16.968 200.471 17.76C199.463 18.552 198.539 19.512 197.699 20.64C196.883 21.744 196.211 22.932 195.683 24.204C195.155 25.476 194.891 26.664 194.891 27.768C194.891 28.224 195.059 28.512 195.395 28.632C196.091 28.488 196.895 27.9 197.807 26.868C198.719 25.812 199.823 24.192 201.119 22.008C201.359 21.576 201.623 21.096 201.911 20.568C202.223 20.04 202.535 19.488 202.847 18.912C203.159 18.336 203.459 17.76 203.747 17.184C204.059 16.584 204.347 16.008 204.611 15.456ZM208.237 29.28C208.357 28.584 208.561 27.672 208.849 26.544C209.161 25.392 209.521 24.18 209.929 22.908C210.337 21.612 210.769 20.316 211.225 19.02C211.681 17.724 212.125 16.56 212.557 15.528C212.869 14.784 213.145 14.208 213.385 13.8C213.625 13.368 213.889 13.008 214.177 12.72C214.513 12.768 214.861 12.852 215.221 12.972C215.581 13.092 215.929 13.236 216.265 13.404C216.601 13.572 216.901 13.752 217.165 13.944C217.429 14.112 217.633 14.28 217.777 14.448C217.129 15.216 216.553 16.092 216.049 17.076C215.569 18.06 215.077 19.32 214.573 20.856C215.869 19.704 217.009 18.6 217.993 17.544C219.001 16.488 219.937 15.312 220.801 14.016C220.945 13.896 221.197 13.836 221.557 13.836C221.893 13.836 222.217 13.896 222.529 14.016C222.841 14.112 223.057 14.256 223.177 14.448C222.745 15.6 222.529 16.74 222.529 17.868C222.529 18.924 222.685 19.716 222.997 20.244C222.973 20.388 222.805 20.664 222.493 21.072C222.205 21.48 221.881 21.864 221.521 22.224C220.873 21.888 220.297 21.432 219.793 20.856C219.289 20.256 218.917 19.608 218.677 18.912C217.549 19.704 216.589 20.484 215.797 21.252C215.005 21.996 214.321 22.836 213.745 23.772C213.193 24.684 212.713 25.74 212.305 26.94C211.921 28.14 211.549 29.568 211.189 31.224C210.973 31.2 210.709 31.116 210.397 30.972C210.109 30.852 209.809 30.696 209.497 30.504C209.209 30.312 208.945 30.108 208.705 29.892C208.465 29.676 208.309 29.472 208.237 29.28ZM236.509 15.096C236.413 16.584 236.149 17.868 235.717 18.948C235.285 20.004 234.661 20.94 233.845 21.756C233.053 22.548 232.081 23.268 230.929 23.916C229.777 24.564 228.433 25.188 226.897 25.788C226.897 25.932 226.885 26.088 226.861 26.256C226.861 26.4 226.861 26.556 226.861 26.724C226.861 27.036 226.885 27.36 226.933 27.696C226.981 28.032 227.065 28.344 227.185 28.632C227.305 28.92 227.473 29.16 227.689 29.352C227.905 29.52 228.181 29.604 228.517 29.604C229.165 29.604 229.801 29.46 230.425 29.172C231.049 28.884 231.637 28.536 232.189 28.128C232.765 27.696 233.293 27.24 233.773 26.76C234.277 26.256 234.721 25.8 235.105 25.392C235.345 25.608 235.549 25.812 235.717 26.004C234.637 27.444 233.449 28.644 232.153 29.604C230.881 30.54 229.669 31.14 228.517 31.404C226.861 31.212 225.565 30.612 224.629 29.604C223.717 28.572 223.261 27.336 223.261 25.896C223.261 24.912 223.393 23.916 223.657 22.908C223.945 21.876 224.329 20.892 224.809 19.956C225.313 18.996 225.889 18.096 226.537 17.256C227.209 16.416 227.917 15.684 228.661 15.06C229.429 14.436 230.209 13.944 231.001 13.584C231.817 13.224 232.621 13.044 233.413 13.044C234.517 13.188 235.549 13.872 236.509 15.096ZM234.025 16.284C233.377 16.38 232.705 16.644 232.009 17.076C231.313 17.508 230.653 18.084 230.029 18.804C229.429 19.524 228.877 20.364 228.373 21.324C227.869 22.284 227.473 23.316 227.185 24.42C229.105 23.46 230.701 22.284 231.973 20.892C233.245 19.476 233.929 17.94 234.025 16.284ZM240.054 16.212C239.934 16.068 239.826 15.768 239.729 15.312C239.634 14.832 239.586 14.424 239.586 14.088C240.21 14.136 240.81 14.184 241.386 14.232C241.962 14.256 242.49 14.28 242.97 14.304C243.33 13.584 243.714 12.876 244.122 12.18C244.554 11.46 244.962 10.812 245.346 10.236C245.754 9.636 246.126 9.132 246.462 8.724C246.822 8.316 247.098 8.052 247.29 7.932C247.53 7.932 247.83 7.98 248.19 8.076C248.574 8.148 248.958 8.256 249.342 8.4C249.726 8.52 250.074 8.652 250.386 8.796C250.698 8.94 250.914 9.084 251.034 9.228C250.314 10.14 249.69 10.992 249.162 11.784C248.658 12.552 248.106 13.44 247.506 14.448C247.986 14.448 248.466 14.436 248.946 14.412C249.45 14.388 249.954 14.352 250.458 14.304C250.578 14.424 250.674 14.58 250.746 14.772C250.818 14.94 250.854 15.12 250.854 15.312C249.678 15.744 248.25 15.984 246.57 16.032C245.97 17.184 245.43 18.336 244.95 19.488C244.494 20.616 244.098 21.708 243.762 22.764C243.45 23.82 243.198 24.816 243.006 25.752C242.838 26.688 242.754 27.528 242.754 28.272C242.754 29.328 243.15 29.916 243.941 30.036C244.661 29.94 245.346 29.76 245.994 29.496C246.642 29.232 247.218 28.896 247.722 28.488C247.866 28.704 247.95 28.884 247.974 29.028C247.83 29.244 247.578 29.496 247.218 29.784C246.882 30.072 246.51 30.348 246.102 30.612C245.694 30.9 245.298 31.14 244.914 31.332C244.53 31.524 244.242 31.632 244.05 31.656C243.45 31.632 242.85 31.5 242.25 31.26C241.65 31.02 241.098 30.72 240.594 30.36C240.114 30 239.718 29.604 239.406 29.172C239.094 28.716 238.938 28.272 238.938 27.84C238.938 27.264 239.01 26.544 239.154 25.68C239.322 24.792 239.55 23.832 239.838 22.8C240.126 21.768 240.462 20.688 240.846 19.56C241.23 18.432 241.65 17.316 242.106 16.212H240.054ZM250.55 29.388C250.55 28.548 250.634 27.564 250.802 26.436C250.97 25.284 251.21 24.06 251.522 22.764C251.858 21.468 252.242 20.112 252.674 18.696C253.13 17.28 253.634 15.864 254.186 14.448C254.666 13.176 255.218 11.892 255.842 10.596C256.49 9.3 257.186 8.028 257.93 6.78C258.674 5.532 259.442 4.344 260.234 3.216C261.05 2.088 261.866 1.056 262.682 0.119998C263.066 0.119998 263.474 0.167999 263.906 0.263999C264.362 0.359999 264.794 0.491999 265.202 0.659998C265.634 0.803999 266.018 0.983999 266.354 1.2C266.714 1.416 267.002 1.632 267.218 1.848C265.418 3.696 263.798 5.568 262.358 7.464C260.918 9.336 259.778 11.1 258.938 12.756C258.482 13.668 258.062 14.52 257.678 15.312C257.318 16.104 256.982 16.896 256.67 17.688C256.358 18.456 256.07 19.236 255.806 20.028C255.566 20.796 255.338 21.612 255.122 22.476C259.73 16.596 263.15 13.656 265.382 13.656C266.006 13.656 266.678 13.86 267.398 14.268C268.118 14.676 268.754 15.228 269.306 15.924C268.562 16.74 267.794 17.724 267.002 18.876C266.21 20.028 265.478 21.192 264.806 22.368C264.158 23.52 263.618 24.6 263.186 25.608C262.778 26.592 262.574 27.324 262.574 27.804C262.574 28.044 262.61 28.212 262.682 28.308C262.754 28.38 262.91 28.416 263.15 28.416C263.51 28.416 263.798 28.368 264.014 28.272C264.23 28.176 264.362 28.128 264.41 28.128C264.53 28.32 264.602 28.452 264.626 28.524C264.65 28.596 264.662 28.656 264.662 28.704C264.662 28.8 264.518 28.944 264.23 29.136C263.942 29.304 263.594 29.484 263.186 29.676C262.802 29.844 262.418 30 262.034 30.144C261.65 30.288 261.362 30.36 261.17 30.36C260.93 30.36 260.69 30.288 260.45 30.144C260.21 30.024 259.994 29.856 259.802 29.64C259.634 29.424 259.49 29.184 259.37 28.92C259.274 28.656 259.226 28.38 259.226 28.092C259.226 27.732 259.322 27.204 259.514 26.508C259.73 25.788 260.018 24.96 260.378 24.024C260.738 23.064 261.17 22.02 261.674 20.892C262.178 19.764 262.718 18.612 263.294 17.436C263.294 17.34 263.246 17.292 263.15 17.292C263.078 17.292 262.886 17.388 262.574 17.58C262.286 17.772 262.01 17.964 261.746 18.156C260.882 18.804 260.006 19.608 259.118 20.568C258.254 21.504 257.402 22.536 256.562 23.664C255.746 24.792 254.966 25.992 254.222 27.264C253.502 28.512 252.878 29.772 252.35 31.044C252.278 31.212 252.17 31.368 252.026 31.512C251.882 31.656 251.762 31.728 251.666 31.728C251.594 31.728 251.486 31.644 251.342 31.476C251.222 31.308 251.102 31.092 250.982 30.828C250.886 30.588 250.79 30.336 250.694 30.072C250.598 29.808 250.55 29.58 250.55 29.388Z" fill="#FEF5F5"/>
</svg>
